# xmcd CD database file
#
# Track frame offsets:
#	182
#	10130
#	22742
#	36755
#	49822
#	64307
#	83030
#	96260
#	109792
#	123257
#	142395
#	159032
#	172120
#	183207
#	195590
#	209432
#
# Disc length: 2924 seconds
#
# Revision: 0
# Processed by: cddbd v1.5.2PL0 Copyright (c) Steve Scherf et al.
# Submitted via: CDex 1.50
#
DISCID=d40b6a10
DTITLE=Diverse - Cotton Club [CD2)
DYEAR=1995
DGENRE=Jazz
TTITLE0=Night In Tunesia - Dizzi Gillespie
TTITLE1=Unforgetable - Nat King Cole
TTITLE2=That Old Feeling - Chet Backer
TTITLE3=The Thrill Is Gone - Chet Backer
TTITLE4=Just One Of Those Things - Sarah Vaughn
TTITLE5=Glad To Be Unhappy - Billie Hollyday
TTITLE6=For All We Know - Billie Hollyday
TTITLE7=My Funny Valentine - Jerry Mulligan
TTITLE8=St. Louis Blues - Louis Armstrong
TTITLE9=Lavie en Rose - Louis Armstrong
TTITLE10=I'm Begining To See The Light - Ella Fitzgerald
TTITLE11=Oolala - Dizzy Gilliespie
TTITLE12=Somebody To Love Me - Harry James
TTITLE13=Mona Lisa - Nat King Cole
TTITLE14=Dinah - Chet Backer
TTITLE15=Perdido - Sarah Vaughn
EXTD=YEAR: 1995
EXTT0=
EXTT1=
EXTT2=
EXTT3=
EXTT4=
EXTT5=
EXTT6=
EXTT7=
EXTT8=
EXTT9=
EXTT10=
EXTT11=
EXTT12=
EXTT13=
EXTT14=
EXTT15=
PLAYORDER=
